# Blender 4.3.2
# www.blender.org
mtllib dinosaur_head.mtl
o dino_tapeout_with_pat.001
v 2.405123 6.187879 -0.567431
v 4.467745 6.065675 -0.444829
v 7.023954 7.614221 -0.296009
v 7.065202 6.911689 -0.320699
v 5.144553 6.485277 0.401834
v 5.168724 6.578892 -1.204038
v 6.659563 5.194789 -0.393004
v 4.228254 7.457746 -0.893511
v 4.280571 7.396937 0.214404
v 3.619620 5.227151 0.198013
v 3.592076 5.272702 -1.062384
l 4 5
l 4 6
l 5 6
l 5 3
l 3 6
l 5 7
l 6 7
l 5 2
l 2 6
l 3 4
l 8 6
l 2 9
l 9 5
l 8 3
l 8 2
l 9 8
l 3 9
l 10 2
l 2 11
l 8 1
l 11 8
l 1 9
l 9 10
l 2 7
